<?xml version="1.0" encoding="utf-8"?>
<!-- Generator: Adobe Illustrator 15.1.0, SVG Export Plug-In . SVG Version: 6.00 Build 0)  -->
<!DOCTYPE svg PUBLIC "-//W3C//DTD SVG 1.1//EN" "http://www.w3.org/Graphics/SVG/1.1/DTD/svg11.dtd">
<svg version="1.1" id="Layer_1" xmlns="http://www.w3.org/2000/svg" xmlns:xlink="http://www.w3.org/1999/xlink" x="0px" y="0px"
	 width="146px" height="128px" viewBox="0 0 105 92" enable-background="new 0 0 105 92" xml:space="preserve">
<path d="M54.471,91c-18.528,0-33.977-9.258-41.326-24.765l-0.283-0.597l-0.661,0.026c-0.158,0.006-0.315,0.01-0.471,0.01
	c-6.081,0-9.939-4.695-10.606-9.333C1.042,55.774,1,55.183,1,54.58c0-4.146,2.042-9.13,6.602-10.919l0.607-0.238l0.026-0.652
	C9.209,18.958,29.086,1,54.471,1c16.451,0,30.521,7.233,38.602,19.844l0.243,0.38l0.446,0.068c4.986,0.767,9.527,6.174,9.527,11.345
	c0,2.634-1.01,5.411-2.702,7.427l-0.289,0.345l0.066,0.446c0.267,1.772,0.38,3.311,0.38,5.145C100.744,70.813,79.986,91,54.471,91z"
	/>
<path fill="#FFFFFF" d="M50.071,57.732c-0.25,0.217-0.878,6.459-1.099,7.758c-0.289,1.707-1.308,5.266-1.129,5.529
	c0.179,0.262,5.494,1.067,5.789,0.723c0.295-0.346,1.166-13.686,0.841-13.893C54.146,57.641,50.323,57.518,50.071,57.732z"/>
<path fill="#FFFFFF" d="M48.278,57.559c-0.188-0.309-3.823-0.936-4.082-0.811c-0.259,0.125-2.611,12.291-2.521,12.645
	c0.091,0.354,3.86,1.328,4.259,1.133C46.33,70.332,48.465,57.869,48.278,57.559z"/>
<path fill="#FFFFFF" d="M42.128,56.564c-0.332-0.357-6.791-0.228-6.641,5.961c0.087,3.559,3.702,5.889,4.226,5.66
	S42.459,56.922,42.128,56.564z"/>
<path fill="#FFFFFF" d="M56.465,57.469c-0.256,0.205-0.963,14.342-0.754,14.641c0.207,0.3,5.158,0.152,5.434-0.149
	c0.273-0.303-0.104-15.226-0.379-15.319C60.492,56.547,56.723,57.264,56.465,57.469z"/>
<path fill="#FFFFFF" d="M78.639,49.137c-0.092,0.338,4.801,8.859,5.182,8.857c0.382-0.004,1.937-3.703,0.896-5.877
	C83.133,48.797,78.73,48.799,78.639,49.137z"/>
<path fill="#FFFFFF" d="M72.764,51.508c-0.404,0.002-4.522,2.115-4.678,2.49c-0.156,0.377,1.986,4.895,2.449,6.602
	c0.438,1.617,0.596,7.729,1.021,7.887c0.424,0.158,6.045-3.233,6.188-3.62c0.143-0.39-1.131-6.265-2.189-8.604
	C74.5,53.924,73.17,51.508,72.764,51.508z"/>
<path fill="#FFFFFF" d="M66.273,54.754c-0.34-0.061-3.465,1.098-3.697,1.357c-0.232,0.262,0.756,15.121,1.127,15.342
	c0.373,0.221,5.547-1.689,5.74-2.061c0.195-0.371-0.299-7.144-0.818-8.996C68.123,58.615,66.615,54.814,66.273,54.754z"/>
<path fill="#FFFFFF" d="M76.764,49.773c-0.383-0.06-2.209,0.815-2.264,1.131c-0.057,0.315,1.434,2.113,2.49,4.604
	c1.056,2.491,1.969,7.562,2.373,7.666c0.406,0.105,3.135-2.654,3.213-3.184C82.656,59.461,77.145,49.83,76.764,49.773z"/>
<path fill="#FFFFFF" d="M24.168,25.474c5.839-3.424,15.47-8.953,25.506-10.916c9.949-1.944,18.441-1.3,23.996-1.005
	c0.955,0.05,1.033-0.443,1.033-0.443s-11.271-2.173-24.777,0.241C36.002,15.84,22.493,25.946,22.493,25.946
	S22.71,26.329,24.168,25.474z"/>
<path fill="#FFFFFF" d="M21.805,31.612c6.987-3.861,18.411-9.457,30.184-12.124c8.4-1.902,19.547-2.313,25.506-2.313
	c1.508,0,1.381-0.554,1.381-0.554s-15.469-0.956-27.012,1.282C35.035,21.166,19.49,32.241,19.49,32.241S19.893,32.668,21.805,31.612
	z"/>
<path fill="#FFFFFF" d="M57.748,32.069c-3.473,0.412-5.166,2.319-5.166,2.319s0.578,0.288,2.02,0.144
	c1.441-0.144,1.338-1.157,3.217-1.425c1.693-0.242,1.867,0.346,2.627,0.173c1.334-0.303,1.558-1.211,1.558-1.211
	S60.377,31.759,57.748,32.069z"/>
<path fill="#FFFFFF" d="M56.768,26.949c-4.615,0.433-6.491,2.5-6.491,2.5s0.577,0.289,2.021,0.145
	c1.44-0.145,2.731-1.353,4.609-1.642c1.875-0.288,2.483,0.693,3.782,0.261c1.299-0.432,2.164-1.298,2.164-1.298
	S61.383,26.517,56.768,26.949z"/>
<path fill="#FFFFFF" d="M30.506,16.873c4.398-1.979,13.074-6.234,19.677-7.018c8.905-1.057,12.172-0.19,16.94,0.188
	c1.189,0.094,1.566-0.113,1.566-0.113s-6.31-3.185-19.695-1.358c-9.961,1.358-20.339,8.751-20.339,8.751
	S28.998,17.552,30.506,16.873z"/>
<path fill="#FFFFFF" d="M76.264,22.855c2.037,0.429,1.185-0.53,4.611-0.504c3.428,0.027,4.244-0.251,4.244-0.251
	s-1.787-0.985-5.752-0.797c-3.963,0.188-4.982,0.37-4.982,0.37S74.229,22.426,76.264,22.855z"/>
<path fill="#FFFFFF" d="M86.967,32.34c-2.691,0.087-4.18,0.484-4.18,0.484s0.129,0.973,1.273,1.213
	c1.496,0.316,1.864-0.719,3.844-0.635c1.398,0.06,3.383-0.457,3.383-0.457S88.383,32.295,86.967,32.34z"/>
<path fill="#FFFFFF" d="M12.145,57.57c-0.553-0.201-1.76-0.654-2.163-2.465c-0.46-2.072,0.655-2.867,1.008-3.42
	c0.353-0.556,0.049-0.756,0.049-0.756s-2.917,0.956-2.163,4.276c0.639,2.81,3.823,3.065,3.823,3.065S12.698,57.771,12.145,57.57z"/>
<path fill="#FFFFFF" d="M84.523,26.884c-2.822,0.091-4.383,0.508-4.383,0.508s0.135,1.021,1.334,1.272
	c1.567,0.331,1.957-0.755,4.03-0.666c1.468,0.062,3.547-0.48,3.547-0.48S86.006,26.836,84.523,26.884z"/>
<path fill="#FFFFFF" d="M30.359,38.735c1.297-1.587,0.865-1.875,0.865-1.875s-4.184,1.153-7.067,2.452
	c-2.884,1.298-7.933,3.894-7.933,3.894s6.491-1.73,8.51-2.885C26.754,39.168,29.062,40.321,30.359,38.735z"/>
<path fill="#FFFFFF" d="M94.521,29.069c0,0-0.119,0.336,0.19,0.527c0.56,0.344,0.808,0.7,1.295,1.728
	c0.455,0.959,0.531,2.198,0.455,2.782c-0.069,0.551,0.072,0.743,0.072,0.743s0.741-1.631-0.265-3.766
	C95.637,29.735,94.521,29.069,94.521,29.069z"/>
<path fill="#FFFFFF" d="M104.289,32.637c0-5.8-4.956-11.5-10.375-12.333C85.625,7.368,71.384,0,54.471,0
	C28.614,0,8.222,18.623,7.237,42.73C2.283,44.673,0,49.943,0,54.58c0,0.648,0.045,1.29,0.134,1.904
	c0.729,5.064,4.946,10.19,11.596,10.19c0.169,0,0.34-0.004,0.511-0.011C19.688,82.377,35.573,92,54.471,92
	c26.066,0,47.273-20.636,47.273-46c0-2.008-0.135-3.589-0.391-5.293C103.15,38.565,104.289,35.563,104.289,32.637z M97.049,39.254
	c0.449,2.424,0.695,4.197,0.695,6.746c0,23.197-19.373,42-43.273,42c-18.542,0-33.638-9.887-39.796-25.797
	c-0.549,0.166-1.124,0.299-1.72,0.383c-4.906,0.707-8.319-2.896-8.862-6.67c-0.543-3.773,1.27-9.164,6.175-9.87
	c0.326-0.047,0.648-0.078,0.968-0.099c-0.016-0.46-0.036-0.921-0.036-1.386C11.199,21.365,30.572,4,54.471,4
	c16.314,0,29.795,7.327,37.168,20.268c0.305-0.04,0.615-0.068,0.932-0.068c3.865,0,7.72,4.571,7.72,8.438
	C100.289,35.117,98.996,38.011,97.049,39.254z"/>
<path fill="#FFFFFF" d="M30.158,44.772c1.298-1.587,0.865-1.875,0.865-1.875s-4.183,1.153-7.068,2.452
	c-2.884,1.297-7.932,3.893-7.932,3.893s6.491-1.73,8.51-2.884C26.553,45.205,28.86,46.358,30.158,44.772z"/>
<path fill="#FFFFFF" d="M31.828,32.681c1.731-1.154,1.586-1.73,1.586-1.73s-4.183,1.587-7.932,2.885
	c-3.75,1.298-9.087,4.903-9.087,4.903s6.49-2.596,9.663-3.895C29.231,33.546,30.098,33.835,31.828,32.681z"/>
<path fill="#FFFFFF" d="M63.438,21.811c0,0-3.891,0.183-8.479,0.83c-4.589,0.648-8.235,2.983-8.235,2.983s0.59,0.262,2.024,0.05
	c1.433-0.212,4.394-1.793,6.252-2.169c1.858-0.375,5.062,0.196,6.338-0.296C62.613,22.716,63.438,21.811,63.438,21.811z"/>
<path fill="#FFFFFF" d="M27.341,51.514c1.298-1.586,0.866-1.875,0.866-1.875s-3.065,0.396-5.949,1.695
	c-2.885,1.297-5.133,2.715-5.133,2.715s3.69-0.553,5.71-1.707C24.854,51.188,26.043,53.1,27.341,51.514z"/>
<path fill="#FFFFFF" d="M93.793,44.391c-0.949-5.963-9.602-7.445-11.713-8.653c-2.113-1.207-0.879-11.896-10.537-11.896
	s-8.738,14.914-8.738,14.914s-1.209-2.415-4.83-2.415c-3.623,0-4.83,4.83-4.83,4.83S50.73,27.89,41.071,27.89
	c-9.659,0-8.451,16.903-8.451,19.317c0,5.281-10.414,10.111-9.056,16.299c3.117,14.201,26.16,22.941,44.521,16.904
	C91.133,72.832,94.848,51.031,93.793,44.391z M70.299,28.76c1.92-0.753,4.092,0.065,5.381,1.835l-3.721,2.395l4.252,3.276
	c-0.471,0.899-1.205,1.63-2.178,2.012c-2.336,0.917-5.066-0.471-6.098-3.099C66.902,32.55,67.963,29.675,70.299,28.76z
	 M60.031,40.147c0.652-0.137,1.348,0.547,1.551,1.526s-0.16,1.884-0.812,2.02c-0.651,0.135-1.348-0.549-1.551-1.527
	C59.014,41.187,59.379,40.283,60.031,40.147z M56.486,40.886c0.652-0.138,1.346,0.547,1.549,1.526
	c0.205,0.979-0.158,1.883-0.812,2.02c-0.652,0.136-1.348-0.548-1.549-1.528C55.469,41.925,55.832,41.021,56.486,40.886z
	 M43.485,32.72c2.668,0,4.83,2.432,4.83,5.433s-2.162,5.434-4.83,5.434c-1.109,0-2.119-0.438-2.934-1.146l2.934-4.891l-4.612-0.923
	C39.463,34.374,41.293,32.72,43.485,32.72z M82.783,62.355c-2.414,2.94-8.615,10.944-21.031,12.696
	c-11.771,1.66-20.082-2.006-24.007-3.969c-2.754-1.377-6.273-5.947-4.271-11.553c1.886-5.283,6.195-6.308,8.609-6.007
	c1.562,0.195,8.661,2.566,15.681,0.605c2.127-0.596,5.903-1.52,7.856-2.094c3.848-1.133,8.549-3.102,10.219-3.77
	c3.396-1.358,7.369-2.047,10.315,1.784C88.141,52.633,85.197,59.412,82.783,62.355z"/>
</svg>
